<svg xmlns="http://www.w3.org/2000/svg" xmlns:xlink="http://www.w3.org/1999/xlink" viewBox="0 0 800 600"><defs><style>.a{fill:none;}.b{clip-path:url(#a);}.c,.g{fill:#fbae19;}.d{fill:#f79421;}.e{fill:#2a79bd;}.f{fill:#e88623;}.g{font-size:73.09px;font-family:MahoniFreePersonalUse, Mahoni Free Personal Use;}</style><clipPath id="a"><rect class="a" x="-111" y="-6" width="1002" height="501"/></clipPath></defs><title>Artboard 1</title><g class="b"><path class="c" d="M190.45,196,117.67,123.2a17.68,17.68,0,0,0-25,0L20,195.85a17.67,17.67,0,0,0,0,25l23.29,23.28,18,18,24.11,24.11,7.35,7.35A18.1,18.1,0,0,0,95,295.47v63.8a10.5,10.5,0,1,0,21,0V303.08c-2.48,1.76-6.35,3.85-10.72,3.85A15.8,15.8,0,0,1,95,303.12v-7.65a17.79,17.79,0,0,0,22.8-1.82l7.85-7.85,23.63-23.64,16.48-16.48L190.47,221a17.67,17.67,0,0,0,0-25"/><path class="d" d="M116,295.12h-1v7.93h1Z"/><path class="e" d="M717.55,305.18A27.62,27.62,0,0,0,743,289.1V303h23V161H743l0,56.81c0-2.34-8.84-15.18-24.94-15.18-23,0-33.8,21.3-33.8,53.7,0,53.2,33.26,48.86,33.26,48.86m8.42-85.1s17.15-1.76,17.15,32.94-16.72,34.39-16.72,34.39-17.67,3.66-17.67-33.91S726,220.08,726,220.08"/><path class="e" d="M618.42,305c23.82,0,29.58-21,29.58-21V303h23V205H648v42.7c0,17.75-8.85,36.3-23.14,36.3-10.43,0-9.86-20.94-9.86-20.94V205H592v67c0,10.8,2.67,33,26.48,33"/><path class="e" d="M537.29,304.58c25.85,0,41.36-13.51,41.36-51.58S564,201.72,545,201.72s-26,14.77-26,14.77V160H496V261.18c0,28.18,15.44,43.4,41.29,43.4m-.46-87.7c8.34-.16,16.94,5.1,16.94,35.66s-7.93,36.93-16.94,36.93c-13.94,0-18.56-12-18.56-36.33s9.07-36.26,18.56-36.26"/><path class="e" d="M276.3,304.58c25.86,0,41.36-13.51,41.36-51.58S303,201.72,284,201.72s-26,14.77-26,14.77V160H235V261.18c0,28.18,15.44,43.4,41.3,43.4m-.31-87.7c8.35-.16,16.94,5.1,16.94,35.66S285,289.48,276,289.48c-13.94,0-18.56-12-18.56-36.33s9.08-36.26,18.56-36.26"/><path class="e" d="M357.42,305c23.82,0,29.58-21,29.58-21V303h23V205H387v42.7c0,17.75-8.85,36.3-23.14,36.3-10.43,0-9.86-20.94-9.86-20.94V205H331v67c0,10.8,2.67,33,26.48,33"/><path class="e" d="M487.14,275.79c0-26.87-43.41-37.36-43.41-48.7,0-4.95,9-8.78,15.69-8.78,9.55,0,21.58,6.91,21.58,6.91V205.68s-11.86-3.93-22-3.93c-8.53,0-35.65,2.56-35.65,28.83,0,26.95,42.48,37.52,42.48,48.62,0,4.26-4.18,8.44-17.91,8.44A57.42,57.42,0,0,1,423,281.51V301.3a85,85,0,0,0,26.61,4.1c15.44,0,37.53-4.86,37.53-29.6"/><path class="f" d="M145.21,202a40.88,40.88,0,0,1-81.66,0H52.32a51.68,51.68,0,0,0,103.34,0Z"/><path class="f" d="M116,295.15a17.59,17.59,0,0,1-21,.34v7.59a15.82,15.82,0,0,0,10.28,3.81c4.37,0,8.24-2.09,10.72-3.84v-7.89h0"/></g><text class="g" transform="translate(239.09 370.65)">search</text></svg>